<svg xmlns="http://www.w3.org/2000/svg" viewBox="0 0 800 600"><defs><radialGradient id="a" cx="-148.3" cy="562.8" r="703.7" gradientUnits="userSpaceOnUse"><stop offset="0" stop-color="#ff8b35"/><stop offset="1" stop-color="#fff" stop-opacity="0"/></radialGradient><radialGradient id="b" cx="-118.9" cy="640" r="652" gradientTransform="rotate(-3 8007 415) scale(1 .29563)" gradientUnits="userSpaceOnUse"><stop offset="0" stop-color="#facd23"/><stop offset=".2" stop-color="#fbd854" stop-opacity=".8"/><stop offset=".6" stop-color="#fdedaf" stop-opacity=".4"/><stop offset=".9" stop-color="#fefae9" stop-opacity=".1"/><stop offset="1" stop-color="#fff" stop-opacity="0"/></radialGradient><radialGradient id="c" cx="-113.7" cy="-140" r="664.2" gradientUnits="userSpaceOnUse"><stop offset="0" stop-color="#ff1f64"/><stop offset="1" stop-color="#fff" stop-opacity="0"/></radialGradient><radialGradient id="d" cx="894.2" cy="-167.4" r="731.7" gradientTransform="rotate(137 889 -182) scale(1 1.16854)" gradientUnits="userSpaceOnUse"><stop offset="0" stop-color="#c237f9"/><stop offset="1" stop-color="#fff" stop-opacity="0"/></radialGradient><radialGradient id="e" cx="995.4" cy="637.8" r="744.2" gradientTransform="matrix(-.99474 -.10242 .0437 -.42439 1958 1010)" gradientUnits="userSpaceOnUse"><stop offset="0" stop-color="#92dc26"/><stop offset="1" stop-color="#fff" stop-opacity="0"/></radialGradient><radialGradient id="f" cx="992.2" cy="442.3" r="724.9" gradientTransform="rotate(-172 997 376) scale(1 .701)" gradientUnits="userSpaceOnUse"><stop offset="0" stop-color="#50aeff"/><stop offset=".2" stop-color="#79c1ff" stop-opacity=".8"/><stop offset=".6" stop-color="#c1e2ff" stop-opacity=".4"/><stop offset=".9" stop-color="#eef7ff" stop-opacity=".1"/><stop offset="1" stop-color="#fff" stop-opacity="0"/></radialGradient></defs><path d="M0 578c254 41 284-27 486 3s314-16 314-16V0H0z" fill="url(#a)"/><path d="M0 591c283 38 284-72 486-35s314 3 314 3V0H0z" fill="url(#b)"/><path d="M0 584c292 28 284-65 486-28s314 3 314 3V0H0z" fill="url(#c)"/><path d="M0 582c305 29 284-36 486-6s314-16 314-16V0H0z" fill="url(#d)"/><path d="M0 596c229 22 310-37 486-7 201 34 314-24 314-24V0H0z" fill="url(#e)"/><path d="M0 584c292 28 281-63 481-17 209 48 319 13 319 13V0H0z" fill="url(#f)"/></svg>