<svg xmlns="http://www.w3.org/2000/svg" viewBox="0 0 67.5 88.1"><title>sk-doodle-head</title><path d="M66,55c-.9-6-6.2-10-7.2-16.6-1.3-8.8,1.8-17-6-23.7s-26.5-3.1-36.1,1.1C.5,23,11.6,34.7,6.8,48,5.3,52.1,1.2,52.2.9,57.3s3,9.6,8,6.3C11.4,80.8,12.6,88.5,32.3,88c17.5-.5,27.3-7.1,26.8-25.2C63.7,67.5,66.6,58.4,66,55Z" style="fill:#e5b380"/><path d="M49.8,69l-.5-3c0-.7.2-1.4-.4-2s-3.7-.4-4.8-.3c-4.6.3-9,2.5-13.4,3.1-2.3.3-5,1.7-7.4,1.6-.5,0-.9-.5-1.6-.5l-1.3.4a.9.9,0,0,0-.7-.3c-1.7.5-1.3,2-.5,3.4s5.6,4.9,7.4,4A14.6,14.6,0,0,0,29,73.7c1.4-.8,2.7-2.2,4-2.8s5.2-.8,6.3.3.2,1.1.5,1.5a1.9,1.9,0,0,0,2.4.4c1-.4,1.4-1.3,2.2-1.9s.8-.9,1.4-.4l1.6.6a2,2,0,0,0,2.4-1.5A1.4,1.4,0,0,0,49.8,69Z" style="fill:#9b724e"/><path d="M63.2,29.6c.7-13.3-1.3-27-16-29-11-1.5-23,5-28,10-7-3-9,1-13,9C3.9,24.2.2,55,7.6,51.6c2-1,.7-13,2.6-15.7s6.6-.6,8-3.6-9.4,1.4-10,2c1.2-14.7-.2-16.1,16-19.7,27-6,34.7-1.6,34.8,16.5-.7-.1-10.4-1-10.8,1.5,2,1,10.2,2.7,11,4s0,12,3,12C63.2,48.6,61.2,40.6,63.2,29.6Z" style="fill:#664337"/><path d="M49.2,60.7c-2.7-.8-6,.6-8.5,1.3s-6.5,2-9.8,2.7a34.3,34.3,0,0,1-9.6.8c-.8,0-3.5-.9-4.2-.3s0,1.4.8,1.8c2.9,1,7,.4,10,0s6.9-1.2,10.3-1.8,6-.5,9-1c1-.1,2.5-.3,3-1.2a1.6,1.6,0,0,0-.7-2.2Z" style="fill:#fff"/><path d="M48.8,71.4c-2.3-1.3-4.5-.7-6.9,0s-3.1,0-5.2-.5-4.5.6-6.6,1.8-4.2,1.6-3.5,3.4,4.4.9,5.4,1a34.1,34.1,0,0,0,8.4-.7c2.3-.4,5.8-.5,8-1.5S50.4,72.4,48.8,71.4Z" style="fill:#994f4f"/><path d="M48.4,72.8c-3.8.8-7.5,2-11.3,2.8-1,.2-3.3.2-3.3,1.7s2,1,3,.9c3-.4,6.1-.4,9-1.2,1.3-.3,3.5-.9,4-2a1.4,1.4,0,0,0-.3-2A1.4,1.4,0,0,0,48.4,72.8ZM20.7,46.4c-.2-2.4-1.3-4.6-4.1-4.2s-4.3,1-4.4,3.1c-.3,5.2,9,7.3,8.5,1Zm35.5-3.9c-4-2.9-9.9,3-3.3,6.5C56.2,50.6,59.8,47.2,56.2,42.5Z" style="fill:#fff"/><path d="M18.2,46.3c0-2.6-4.3-1.6-3.3.8S18.4,48.3,18.2,46.3Zm37.4-1.6c-1.1-2.5-5.3,0-3.3,2S57.8,46.6,55.6,44.7Z" style="fill:#c67d3c"/><path d="M15.9,41.9c-5.6.9-5.9,8.5,0,8.8S22.9,40.9,15.9,41.9Zm4.3,5.5c-1.3,3.5-8.5,3-7.6-1.3S22.1,42.5,20.2,47.4Zm38-3.8c-1-1.5-4.2-2.7-6-2.4a3.6,3.6,0,0,0-2.6,4.4c0,.1.1.2.1.3a6,6,0,0,0,5,4.3C58,50.3,59.7,46.1,58.2,43.6Zm-2.7,5.5c-3.3.8-7.2-5-3.4-6.4S59.7,48,55.5,49.1Zm4-12.6a18.6,18.6,0,0,0-5.3-3l-3-.7-2-.4c-1.1-.5-1.4-.2-.8.8a7.3,7.3,0,0,1,4.2-1.8c1.1-.2,4,.4,4.9,0s-1-1.2-1.9-1.2a16.3,16.3,0,0,0-5.4.6c-.9.4-3.4,1.3-2.3,2.5s3.9.7,4.8,1a15.7,15.7,0,0,1,4.6,2c.2,0,1.5,1.2,1.9,1S59.9,36.8,59.5,36.5Z"/><path d="M64.7,49.4l-1.6-1a.6.6,0,0,0,0-.6c.5-.5,0-1.4-.2-2.7a37.5,37.5,0,0,1-.2-5.8c.2-4.3.7-8.6,1-13A29.3,29.3,0,0,0,56.5,4.7c-5-5.8-14-5.3-20.8-3.4A42.7,42.7,0,0,0,25.6,5.6a20.3,20.3,0,0,0-4.4,3.3c-.3.3-1.6,1.3-1.6,1.9s.3,1.2.9.5A32.4,32.4,0,0,1,39.8,1.5c3.8-.6,8-.7,11.7,1s5.3,4.6,7.3,7.6a24.4,24.4,0,0,1,4,11c.3,4.2-.4,8.4-.7,12.6a68.7,68.7,0,0,0-.2,12,18.5,18.5,0,0,0,.4,2.3h-.5c-.2-.1-.7-.5-1.1-.4q-.3-9-1.2-18c-.5-4.3-1.2-9-3.8-12.7s-6.4-4.8-10.6-5l-6.5.2c-.7,0-3-.5-3.5,0l-.4.3-1-.3c-2.3,0-4.6.8-6.8,1.3s-5,1-7.6,1.7c-4.1,1-8.6,2.4-10.1,6.8S7.7,32.7,7.5,37.7a.9.9,0,0,0,0,1v12l-2.3.2c-2-9.5-3-19.9.4-29.1A24.7,24.7,0,0,1,12.2,11c1.6-1.3,3.4-1.9,5.3-.8s1.3,1.4,2,.9-.7-1.4-1.1-1.6c-8.2-5.1-14,11-15.2,16.4a50.5,50.5,0,0,0-.7,14.5,63.8,63.8,0,0,0,1,7.3,19.5,19.5,0,0,0,.3,3.4,5.4,5.4,0,0,0-2.7,1.4c-1.7,1.8-1.1,4.8-.4,7S2.3,64,4.3,65a3.3,3.3,0,0,0,2.9.2,2.4,2.4,0,0,0,1-1l.6,4.6c.6,4.3.5,10,2.6,14s7.1,4.7,11.1,5.1a66.3,66.3,0,0,0,15.4-.6c4.9-.6,9.8-1.3,14.4-3.1s7.5-4.5,8.3-9.3a68.6,68.6,0,0,0,.3-11.1l.6.4c5.4,3,6-5.6,6-8.6a6.8,6.8,0,0,0-3-6.3ZM7.8,63.8c-.5-.2-1.4.8-2.2.7a3.5,3.5,0,0,1-2-1.4,12,12,0,0,1-2.4-5.7c-.4-2.4,0-4.2,2.5-5s2.4-.2,3.3-.6l.4-.3c.2,4.1.4,8.3.9,12.5Zm.9-30.4a6.6,6.6,0,0,0,2-.6,15.7,15.7,0,0,1,4.7-1.3,8.1,8.1,0,0,1,2.2,0l.7.2a29.9,29.9,0,0,0-7.6,3.2L8.6,36.3ZM58.1,78.8C56,82,52,83.4,48.4,84.4A89.7,89.7,0,0,1,33,86.8c-5,.4-10.1.6-15-.6s-6.3-4.4-7-9.3A247.6,247.6,0,0,1,8.6,47.1V37.5c1.3-2.1,8.1-4.3,9.5-4.7s3.8-.6,1.3-2a7.8,7.8,0,0,0-5-.3c-1.5.3-3.7.7-4.8,1.7a2.7,2.7,0,0,0-.8.7V31.3c.3-3.4.1-7.6,2-10.7s7-4.1,10.6-5l6.7-1.5c1.7-.4,5.5-1.9,7.1-.6s1.2,4.6,1.2,6.2-.3,5.4-.4,8c-.2,5,0,10,.2,15s1.5,11-2.2,13.7a7.5,7.5,0,0,1-5.3,1L26.6,57c-.6-.1-2.4-1.5-2.7-1.5-2,.2,1,2,1.6,2.3a12.3,12.3,0,0,0,5.7.7c4.2-.5,6-3.7,6.3-7.6s-.1-9.6-.3-14.4.1-10,.3-15c.1-2.6.6-6.8-1.4-8.6,4.4.1,9-.8,13.2.5s6,3.9,7.2,7.3,2,9.6,2.3,14.4l.8,14.7c.2,5.1.3,10.3.2,15.4s.8,9.7-1.6,13.5Zm4.4-15.2c-.4-.1-1-1-1.6-1.3V60.7c0-4-.1-8-.3-12.1,2.2,1,4.5,2,5.4,4.3s.4,5,0,7.3S64.8,64.3,62.5,63.6Z"/><path d="M16.1,64.6c7.1,1.8,14.4.3,21.4-1.3a85.9,85.9,0,0,1,10.1-2,47.5,47.5,0,0,1,5.3-.5c1.4-.2,2.2-.6.5-1.1s-7,.6-9.7,1.1L33.6,63.1a55.8,55.8,0,0,1-9.9,1.2,37.7,37.7,0,0,1-5.8-.4c-.3-.1-1.6-.6-2-.3A.5.5,0,0,0,16.1,64.6Z"/><path d="M15.3,65c3,2,3,6.5,5.8,8.9a20.4,20.4,0,0,0,10.4,4.2c5.7.8,18.3,2,18.9-6.4a22.5,22.5,0,0,0-.7-5.2,8.2,8.2,0,0,1-.2-2.7c.1-.6.9-2,.7-2.6s-1.8,2.6-1.8,3.1c0,2.1.8,4,1,6.2.5,8.4-12.2,7.3-17.5,6.5s-8.7-2-11.3-5.2c-1.3-1.7-1.7-4-2.9-5.8s-1.2-2-1.8-2-1.3.4-.6.9Z"/><path d="M19.8,68.1a103.4,103.4,0,0,1,15.5-3l7.3-1c.7,0,5-.4,2.8-1.5-.5-.3-3,.4-3.6.5l-3.7.5-7.3,1-7.2,1.3c-.7.1-3.7.4-4,1s-.8,1.3.2,1Zm8.5,7.2c2.1-1,4-2.6,6.2-3.5a5.4,5.4,0,0,1,2.2-.5c1.4,0,1,.6,1.8,1.3s3.2,1.4,5,.3,3.4-2.5,1-2-2.8,2.5-4.6,1.7-.6-1.3-1.1-1.8a3.6,3.6,0,0,0-3-.6,13.8,13.8,0,0,0-5.2,2.4c-.6.3-2.6,1.2-2.9,1.7S27.4,75.6,28.3,75.3Zm4.5,2a80.5,80.5,0,0,0,9.8-1.8l4.8-1.4c.8-.3,3.1-.9,1.6-1.7s-3.9,1.3-4.6,1.6a69.4,69.4,0,0,1-10.1,2c-.5,0-1.7,0-2,.4s-.1,1,.4.9ZM16.4,45.1c-.5.8-.2,0-.7-.1s-2.4,4,1.2,3.2,0-3.8-.5-3Zm.2,2a2.5,2.5,0,0,0,.4-.7c.2.4.7.6-.4.8Zm37.9-2.8a.5.5,0,0,0-.6.1h0c.1-.7.1-1.5-.6-.7s-.5,4.3,1.5,3.3S55.3,43.6,54.5,44.3Z"/></svg>