<?xml version="1.0" standalone="no"?>
<!DOCTYPE svg PUBLIC "-//W3C//DTD SVG 20010904//EN"
 "http://www.w3.org/TR/2001/REC-SVG-20010904/DTD/svg10.dtd">
<svg version="1.0" xmlns="http://www.w3.org/2000/svg"
 width="1000.000000pt" height="1000.000000pt" viewBox="0 0 1000.000000 1000.000000"
 preserveAspectRatio="xMidYMid meet">
<metadata>
Created by potrace 1.11, written by Peter Selinger 2001-2013
</metadata>
<g transform="translate(0.000000,1000.000000) scale(0.100000,-0.100000)"
fill="#000000" stroke="none">
<path d="M5281 8439 c-284 -35 -661 -179 -1051 -401 -102 -59 -417 -266 -591
-389 l-86 -61 -54 35 c-127 84 -294 72 -394 -28 -48 -48 -98 -143 -120 -230
-33 -131 -38 -230 -31 -710 5 -355 3 -542 -8 -765 -9 -162 -21 -595 -28 -962
-13 -719 -3 -1449 26 -1853 8 -110 20 -294 26 -410 18 -355 49 -526 120 -671
100 -205 291 -274 489 -177 108 52 188 164 198 273 7 70 -6 110 -59 192 -68
104 -77 139 -93 356 -9 108 -24 305 -35 437 -30 368 -40 632 -42 1209 l-2 529
39 35 c326 286 974 827 982 818 2 -2 -14 -69 -36 -148 -77 -275 -102 -450 -82
-577 21 -132 85 -221 190 -263 81 -33 245 -32 351 1 257 80 487 247 876 639
246 247 415 430 749 812 308 351 407 461 605 666 216 223 287 321 331 451 17
51 20 82 17 156 -4 115 -38 198 -105 257 -67 59 -125 75 -268 74 -187 -1 -355
-46 -860 -234 -234 -87 -481 -170 -508 -170 -2 0 6 44 19 97 126 521 22 902
-271 992 -77 24 -197 32 -294 20z m-15 -699 c-3 -21 -22 -92 -42 -157 -84
-270 -105 -351 -116 -440 -27 -209 42 -357 204 -439 183 -93 468 -65 976 95
50 16 92 26 92 24 0 -14 -214 -271 -359 -432 -317 -353 -744 -783 -852 -859
-22 -15 -22 -15 -16 14 73 328 98 541 79 676 -16 117 -27 149 -75 220 -34 51
-54 69 -105 95 -53 28 -75 33 -131 33 -127 0 -255 -49 -430 -163 -130 -86
-265 -200 -521 -442 -191 -180 -391 -358 -397 -352 -3 3 25 759 37 1007 5 113
14 219 20 236 8 22 27 39 73 63 164 89 256 150 427 282 102 78 232 173 290
211 118 77 332 186 490 248 117 47 327 119 349 120 10 0 12 -9 7 -40z"/>
<path d="M2069 7096 c-89 -24 -189 -116 -323 -296 -38 -52 -71 -97 -73 -99 -1
-2 -41 31 -89 74 -204 181 -331 255 -451 263 -89 6 -121 -6 -173 -65 -68 -77
-97 -204 -79 -345 26 -207 166 -489 392 -789 71 -96 215 -233 291 -278 106
-64 209 -53 301 31 138 126 383 491 468 698 66 160 81 235 81 420 0 150 -2
170 -23 225 -55 139 -177 200 -322 161z"/>
<path d="M7967 6644 c-33 -8 -93 -32 -135 -54 -215 -112 -385 -327 -591 -745
-239 -483 -449 -1013 -678 -1707 -59 -181 -111 -328 -114 -328 -3 0 -15 19
-25 43 -30 68 -126 208 -180 263 -99 101 -216 161 -334 171 -303 25 -664 -240
-905 -665 l-50 -89 -40 41 c-132 137 -369 117 -440 -37 -30 -62 -31 -108 -8
-265 15 -108 15 -129 -1 -319 -33 -401 -31 -534 10 -703 46 -186 180 -321 336
-337 110 -11 187 33 266 150 59 90 105 205 167 422 173 604 281 859 434 1027
56 61 168 148 191 148 14 0 78 -156 99 -240 31 -125 44 -299 38 -515 -6 -210
5 -404 28 -516 46 -224 223 -401 399 -401 111 -1 194 61 251 185 35 76 122
361 211 692 182 676 210 773 286 1005 91 277 325 925 429 1192 92 234 218 485
317 633 90 134 171 231 182 218 13 -14 60 -228 80 -365 66 -451 47 -873 -85
-1893 -87 -663 -127 -1212 -107 -1430 26 -277 124 -486 255 -546 129 -58 289
15 366 168 56 112 64 247 47 788 -12 369 11 708 73 1125 24 159 85 811 102
1090 7 113 9 287 6 415 -21 790 -231 1276 -595 1376 -79 22 -201 24 -285 3z"/>
<path d="M1663 5217 c-93 -35 -163 -117 -190 -221 -36 -141 -35 -1077 2 -1654
30 -458 98 -1129 130 -1287 52 -252 170 -382 356 -393 96 -6 161 14 221 67
112 99 145 284 72 409 -41 69 -67 249 -118 792 -60 648 -78 1043 -75 1655 3
452 1 466 -70 547 -58 65 -119 92 -216 95 -45 1 -94 -3 -112 -10z"/>
</g>
</svg>
