<svg viewBox="0 0 144 180" xmlns="http://www.w3.org/2000/svg"><path d="m3 91c0 5 2 13 7 16 7 3 12-4 14-10 2-7 0-15 0-22v-28c-1-6-2-14-8-17-7-3-12 5-14 11v21zm34-68c1 22-2 45 1 67 1 6 3 15 10 15 8 0 11-8 11-14v-63c-1-7-2-17-10-18s-12 6-12 13zm34-6v25c0 6-1 13 3 19 4 5 10 7 14 2s5-13 5-19l1-23c0-6-1-14-6-18-9-7-17 7-17 14zm35 39c2 12 15 15 19 4 3-7 2-14 2-21v-23c-2-10-13-18-20-6-3 6-2 14-2 21z"/><path d="m9 149c6 24 34 28 54 30h27c8-1 16-1 24-4 9-4 18-9 23-18 6-10 5-23 6-34l-1-26c0-6-1-13-7-17-13-7-31-3-45-2-9 0-22-2-23 10 0 13 15 12 24 11l22-1h8v36c-1 9-3 15-12 20-7 4-16 3-24 3l-26-1c-12-1-23-4-30-14-3-5-7-8-12-6a11 11 0 0 0 -8 13z"/></svg>